# 3ds Max Wavefront OBJ Exporter v0.97b - (c)2007 guruware
# File Created: 10.10.2015 22:47:52

#
# object Object003
#

v  3.3941 4.1319 7.9810
v  -3.1412 4.1319 7.9810
v  -3.1412 -4.1319 7.9810
v  3.3941 -4.1319 7.9810
v  3.3941 -4.1319 -7.9810
v  -3.1412 -4.1319 -7.9810
v  3.3941 4.1319 -7.9810
v  -3.1412 4.1319 -7.9810
# 8 vertices

vn 0.0000 0.0000 1.0000
vn 0.0000 -1.0000 0.0000
vn 1.0000 0.0000 0.0000
vn 0.0000 1.0000 0.0000
vn -1.0000 0.0000 0.0000
vn 0.0000 0.0000 -1.0000
# 6 vertex normals

vt 0.0000 -0.0004 0.0000
vt 0.0000 -0.0599 0.0000
vt -0.0000 0.0000 0.0000
vt -0.0004 -0.0000 0.0000
vt -1.0596 -0.0000 0.0000
vt -0.0000 -0.0000 0.0000
vt -0.0000 -0.0003 0.0000
# 7 texture coords

g Object003
f 1/1/1 2/2/1 3/3/1 4/4/1 
f 5/5/2 4/4/2 3/3/2 6/6/2 
f 7/7/3 1/1/3 4/4/3 5/5/3 
f 8/3/4 2/2/4 1/1/4 7/7/4 
f 6/6/5 3/3/5 2/2/5 8/3/5 
f 7/7/6 5/5/6 6/6/6 8/3/6 
# 6 polygons

#
# object Object004
#

v  -3.0734 1.5908 -1.7932
v  -3.3941 1.5908 -1.7932
v  -3.3941 -1.5908 -1.7932
v  -3.0734 -1.5908 -1.7932
v  -3.0734 -1.5908 -7.9387
v  -3.3941 -1.5908 -7.9387
v  -3.0734 1.5908 -7.9387
v  -3.3941 1.5908 -7.9387
# 8 vertices

vn 0.5774 0.5774 0.5774
vn -0.5774 0.5774 0.5774
vn -0.5774 -0.5774 0.5774
vn 0.5774 -0.5774 0.5774
vn 0.5774 -0.5774 -0.5774
vn -0.5774 -0.5774 -0.5774
vn 0.5774 0.5774 -0.5774
vn -0.5774 0.5774 -0.5774
# 8 vertex normals

vt 0.0000 -0.0004 0.0000
vt 0.0000 -0.0599 0.0000
vt -0.0000 0.0000 0.0000
vt -0.0004 -0.0000 0.0000
vt -1.0596 -0.0000 0.0000
vt -0.0000 -0.0000 0.0000
vt -0.0000 -0.0003 0.0000
# 7 texture coords

g Object004
f 9/8/7 10/9/8 11/10/9 12/11/10 
f 13/12/11 12/11/10 11/10/9 14/13/12 
f 15/14/13 9/8/7 12/11/10 13/12/11 
f 16/10/14 10/9/8 9/8/7 15/14/13 
f 14/13/12 11/10/9 10/9/8 16/10/14 
f 15/14/13 13/12/11 14/13/12 16/10/14 
# 6 polygons

