# 3ds Max Wavefront OBJ Exporter v0.97b - (c)2007 guruware
# File Created: 10.10.2015 22:09:11

#
# object Prop3
#

v  -4.1079 -6.8227 6.8361
v  -7.9459 -7.8511 6.8361
v  -7.9459 -7.8511 -6.8361
v  -4.1079 -6.8227 -6.8361
v  -1.2983 -4.0131 6.8361
v  -1.2983 -4.0131 -6.8361
v  -0.2700 -0.1752 6.8361
v  -0.2700 -0.1752 -6.8361
v  -1.2983 3.6628 6.8361
v  -1.2983 3.6628 -6.8361
v  -4.1079 6.4724 6.8361
v  -4.1079 6.4724 -6.8361
v  -7.9459 7.5008 6.8361
v  -7.9459 7.5008 -6.8361
v  -11.7838 6.4724 6.8361
v  -11.7838 6.4724 -6.8361
v  -14.5934 3.6628 6.8361
v  -14.5934 3.6628 -6.8361
v  -15.6218 -0.1752 6.8361
v  -15.6218 -0.1752 -6.8361
v  -14.5935 -4.0131 6.8361
v  -14.5935 -4.0131 -6.8361
v  -11.7839 -6.8227 6.8361
v  -11.7839 -6.8227 -6.8361
v  -7.9459 -0.1752 -6.8361
v  -7.9459 -0.1752 6.8361
v  11.7838 -6.4724 6.8361
v  7.9459 -7.5008 6.8361
v  7.9459 -7.5008 -6.8361
v  11.7838 -6.4724 -6.8361
v  14.5934 -3.6628 6.8361
v  14.5934 -3.6628 -6.8361
v  15.6218 0.1752 6.8361
v  15.6218 0.1752 -6.8361
v  14.5934 4.0131 6.8361
v  14.5934 4.0131 -6.8361
v  11.7838 6.8228 6.8361
v  11.7838 6.8228 -6.8361
v  7.9459 7.8511 6.8361
v  7.9459 7.8511 -6.8361
v  4.1080 6.8228 6.8361
v  4.1080 6.8228 -6.8361
v  1.2983 4.0132 6.8361
v  1.2983 4.0132 -6.8361
v  0.2700 0.1752 6.8361
v  0.2700 0.1752 -6.8361
v  1.2983 -3.6628 6.8361
v  1.2983 -3.6628 -6.8361
v  4.1079 -6.4724 6.8361
v  4.1079 -6.4724 -6.8361
v  7.9459 0.1752 -6.8361
v  7.9459 0.1752 6.8361
# 52 vertices

vn 0.5004 -0.8658 0.0000
vn 0.0000 -1.0000 0.0000
vn 0.8661 -0.4998 0.0000
vn 1.0000 0.0000 0.0000
vn 0.8661 0.4998 0.0000
vn 0.5004 0.8658 0.0000
vn 0.0000 1.0000 0.0000
vn -0.5004 0.8658 0.0000
vn -0.8661 0.4998 0.0000
vn -1.0000 0.0000 0.0000
vn -0.8661 -0.4998 0.0000
vn -0.5004 -0.8658 0.0000
vn 0.0000 0.0000 -1.0000
vn 0.0000 0.0000 1.0000
# 14 vertex normals

vt 0.0000 0.0000 0.0000
# 1 texture coords

g Prop3
f 1/1/1 2/1/2 3/1/2 4/1/1 
f 5/1/3 1/1/1 4/1/1 6/1/3 
f 7/1/4 5/1/3 6/1/3 8/1/4 
f 9/1/5 7/1/4 8/1/4 10/1/5 
f 11/1/6 9/1/5 10/1/5 12/1/6 
f 13/1/7 11/1/6 12/1/6 14/1/7 
f 15/1/8 13/1/7 14/1/7 16/1/8 
f 17/1/9 15/1/8 16/1/8 18/1/9 
f 19/1/10 17/1/9 18/1/9 20/1/10 
f 21/1/11 19/1/10 20/1/10 22/1/11 
f 23/1/12 21/1/11 22/1/11 24/1/12 
f 2/1/2 23/1/12 24/1/12 3/1/2 
f 24/1/13 25/1/13 4/1/13 3/1/13 
f 25/1/13 8/1/13 6/1/13 4/1/13 
f 25/1/13 12/1/13 10/1/13 8/1/13 
f 25/1/13 16/1/13 14/1/13 12/1/13 
f 25/1/13 20/1/13 18/1/13 16/1/13 
f 25/1/13 24/1/13 22/1/13 20/1/13 
f 5/1/14 26/1/14 2/1/14 1/1/14 
f 9/1/14 26/1/14 5/1/14 7/1/14 
f 13/1/14 26/1/14 9/1/14 11/1/14 
f 17/1/14 26/1/14 13/1/14 15/1/14 
f 21/1/14 26/1/14 17/1/14 19/1/14 
f 2/1/14 26/1/14 21/1/14 23/1/14 
f 27/1/1 28/1/2 29/1/2 30/1/1 
f 31/1/3 27/1/1 30/1/1 32/1/3 
f 33/1/4 31/1/3 32/1/3 34/1/4 
f 35/1/5 33/1/4 34/1/4 36/1/5 
f 37/1/6 35/1/5 36/1/5 38/1/6 
f 39/1/7 37/1/6 38/1/6 40/1/7 
f 41/1/8 39/1/7 40/1/7 42/1/8 
f 43/1/9 41/1/8 42/1/8 44/1/9 
f 45/1/10 43/1/9 44/1/9 46/1/10 
f 47/1/11 45/1/10 46/1/10 48/1/11 
f 49/1/12 47/1/11 48/1/11 50/1/12 
f 28/1/2 49/1/12 50/1/12 29/1/2 
f 50/1/13 51/1/13 30/1/13 29/1/13 
f 51/1/13 34/1/13 32/1/13 30/1/13 
f 51/1/13 38/1/13 36/1/13 34/1/13 
f 51/1/13 42/1/13 40/1/13 38/1/13 
f 51/1/13 46/1/13 44/1/13 42/1/13 
f 51/1/13 50/1/13 48/1/13 46/1/13 
f 31/1/14 52/1/14 28/1/14 27/1/14 
f 35/1/14 52/1/14 31/1/14 33/1/14 
f 39/1/14 52/1/14 35/1/14 37/1/14 
f 43/1/14 52/1/14 39/1/14 41/1/14 
f 47/1/14 52/1/14 43/1/14 45/1/14 
f 28/1/14 52/1/14 47/1/14 49/1/14 
# 48 polygons

