# 3ds Max Wavefront OBJ Exporter v0.97b - (c)2007 guruware
# File Created: 10.10.2015 22:12:30

#
# object Prop2
#

v  -14.8671 18.0180 0.7030
v  -15.8947 18.0180 1.0770
v  -15.8947 -18.0180 1.0770
v  -14.8671 -18.0180 0.7030
v  -14.6771 18.0180 -0.3741
v  -14.6771 -18.0180 -0.3741
v  -15.5150 18.0180 -1.0769
v  -15.5150 -18.0180 -1.0770
v  -16.5427 18.0180 -0.7028
v  -16.5427 -18.0180 -0.7029
v  -16.7324 18.0180 0.3741
v  -16.7325 -18.0180 0.3741
v  -15.7050 -18.0180 -0.0000
v  -15.7048 18.0180 -0.0000
v  1.0184 18.0180 0.7030
v  -0.0093 18.0180 1.0770
v  -0.0095 -3.9378 1.0770
v  1.0184 -3.9378 0.7030
v  1.2081 18.0180 -0.3741
v  1.2081 -3.9378 -0.3741
v  0.3705 18.0180 -1.0769
v  0.3705 -3.9378 -1.0770
v  -0.6572 18.0180 -0.7028
v  -0.6572 -3.9378 -0.7029
v  -0.8472 18.0180 0.3741
v  -0.8472 -3.9378 0.3741
v  0.1805 -3.9378 -0.0000
v  0.1805 18.0180 -0.0000
v  16.5425 18.0180 0.7030
v  15.5150 18.0180 1.0770
v  15.5150 -3.9378 1.0770
v  16.5425 -3.9378 0.7030
v  16.7325 18.0180 -0.3741
v  16.7325 -3.9378 -0.3741
v  15.8948 18.0180 -1.0769
v  15.8948 -3.9378 -1.0770
v  14.8672 18.0180 -0.7028
v  14.8672 -3.9378 -0.7029
v  14.6772 18.0180 0.3741
v  14.6772 -3.9378 0.3741
v  15.7048 -3.9378 -0.0000
v  15.7048 18.0180 -0.0000
v  16.0323 -5.1701 0.7030
v  16.0323 -4.1425 1.0771
v  -14.9492 -4.1424 1.0771
v  -14.9492 -5.1701 0.7030
v  16.0323 -5.3600 -0.3740
v  -14.9492 -5.3600 -0.3740
v  16.0323 -4.5223 -1.0768
v  -14.9492 -4.5222 -1.0768
v  16.0323 -3.4946 -0.7028
v  -14.9492 -3.4946 -0.7028
v  16.0323 -3.3047 0.3741
v  -14.9492 -3.3047 0.3741
v  -14.9492 -4.3323 0.0001
v  16.0323 -4.3324 0.0001
# 56 vertices

vn 0.7660 0.0000 0.6428
vn -0.1737 0.0000 0.9848
vn 0.9397 0.0000 -0.3421
vn 0.9397 0.0000 -0.3420
vn 0.1736 0.0000 -0.9848
vn -0.7660 0.0000 -0.6428
vn -0.9397 0.0000 0.3420
vn 0.0000 -1.0000 0.0000
vn 0.0000 1.0000 0.0000
vn 0.0000 -0.7661 0.6428
vn 0.0000 0.1736 0.9848
vn 0.0000 0.1737 0.9848
vn 0.0000 -0.7660 0.6428
vn 0.0000 -0.9397 -0.3421
vn 0.0000 -0.1736 -0.9848
vn 0.0000 0.7660 -0.6428
vn 0.0000 0.9397 0.3420
vn -1.0000 0.0000 0.0000
vn 1.0000 0.0000 0.0000
# 19 vertex normals

vt 0.0000 0.0000 0.0000
# 1 texture coords

g Prop2
f 1/1/1 2/1/2 3/1/2 4/1/1 
f 5/1/3 1/1/1 4/1/1 6/1/4 
f 7/1/5 5/1/3 6/1/4 8/1/5 
f 9/1/6 7/1/5 8/1/5 10/1/6 
f 11/1/7 9/1/6 10/1/6 12/1/7 
f 2/1/2 11/1/7 12/1/7 3/1/2 
f 12/1/8 13/1/8 4/1/8 3/1/8 
f 13/1/8 8/1/8 6/1/8 4/1/8 
f 13/1/8 12/1/8 10/1/8 8/1/8 
f 5/1/9 14/1/9 2/1/9 1/1/9 
f 9/1/9 14/1/9 5/1/9 7/1/9 
f 2/1/9 14/1/9 9/1/9 11/1/9 
f 15/1/1 16/1/2 17/1/2 18/1/1 
f 19/1/3 15/1/1 18/1/1 20/1/4 
f 21/1/5 19/1/3 20/1/4 22/1/5 
f 23/1/6 21/1/5 22/1/5 24/1/6 
f 25/1/7 23/1/6 24/1/6 26/1/7 
f 16/1/2 25/1/7 26/1/7 17/1/2 
f 26/1/8 27/1/8 18/1/8 17/1/8 
f 27/1/8 22/1/8 20/1/8 18/1/8 
f 27/1/8 26/1/8 24/1/8 22/1/8 
f 19/1/9 28/1/9 16/1/9 15/1/9 
f 23/1/9 28/1/9 19/1/9 21/1/9 
f 16/1/9 28/1/9 23/1/9 25/1/9 
f 29/1/1 30/1/2 31/1/2 32/1/1 
f 33/1/3 29/1/1 32/1/1 34/1/4 
f 35/1/5 33/1/3 34/1/4 36/1/5 
f 37/1/6 35/1/5 36/1/5 38/1/6 
f 39/1/7 37/1/6 38/1/6 40/1/7 
f 30/1/2 39/1/7 40/1/7 31/1/2 
f 40/1/8 41/1/8 32/1/8 31/1/8 
f 41/1/8 36/1/8 34/1/8 32/1/8 
f 41/1/8 40/1/8 38/1/8 36/1/8 
f 33/1/9 42/1/9 30/1/9 29/1/9 
f 37/1/9 42/1/9 33/1/9 35/1/9 
f 30/1/9 42/1/9 37/1/9 39/1/9 
f 43/1/10 44/1/11 45/1/12 46/1/13 
f 47/1/14 43/1/10 46/1/13 48/1/14 
f 49/1/15 47/1/14 48/1/14 50/1/15 
f 51/1/16 49/1/15 50/1/15 52/1/16 
f 53/1/17 51/1/16 52/1/16 54/1/17 
f 44/1/11 53/1/17 54/1/17 45/1/12 
f 54/1/18 55/1/18 46/1/18 45/1/18 
f 55/1/18 50/1/18 48/1/18 46/1/18 
f 55/1/18 54/1/18 52/1/18 50/1/18 
f 47/1/19 56/1/19 44/1/19 43/1/19 
f 51/1/19 56/1/19 47/1/19 49/1/19 
f 44/1/19 56/1/19 51/1/19 53/1/19 
# 48 polygons

