# 3ds Max Wavefront OBJ Exporter v0.97b - (c)2007 guruware
# File Created: 10.10.2015 22:30:09

#
# object 009
#

v  -1.0970 -1.4381 6.8734
v  -1.5865 -0.0277 6.8734
v  -1.5865 -0.0277 -6.8734
v  -1.0970 -1.4381 -6.8734
v  0.0351 -2.0061 6.8734
v  0.0351 -2.0061 -6.8734
v  1.1466 -1.3990 6.8734
v  1.1466 -1.3990 -6.8734
v  1.5865 0.0276 6.8734
v  1.5865 0.0276 -6.8734
v  1.0971 1.4381 6.8734
v  1.0971 1.4381 -6.8734
v  -0.0351 2.0062 6.8734
v  -0.0351 2.0062 -6.8734
v  -1.1465 1.3990 6.8734
v  -1.1465 1.3990 -6.8734
v  -0.0000 -0.0001 -6.8734
v  -0.0000 -0.0001 6.8734
# 18 vertices

vn -0.5830 -0.5113 0.6314
vn -0.7655 -0.0134 0.6433
vn -0.7655 -0.0134 -0.6433
vn -0.5830 -0.5113 -0.6314
vn 0.0138 -0.7876 0.6161
vn 0.0138 -0.7876 -0.6161
vn 0.6005 -0.4906 0.6314
vn 0.6005 -0.4906 -0.6314
vn 0.7655 0.0134 0.6433
vn 0.7655 0.0134 -0.6433
vn 0.5830 0.5113 0.6314
vn 0.5830 0.5113 -0.6314
vn -0.0138 0.7876 0.6161
vn -0.0138 0.7876 -0.6161
vn -0.6005 0.4906 0.6314
vn -0.6005 0.4906 -0.6314
vn 0.0000 0.0000 -1.0000
vn 0.0000 0.0000 1.0000
# 18 vertex normals

vt 44.3069 0.0000 0.0000
vt 0.0007 0.0000 0.0000
vt 0.1701 0.0000 0.0000
vt 0.0000 2.7687 0.0000
vt 0.0000 2.7849 0.0000
vt 0.0000 0.0000 0.0000
vt 10121.7949 0.0008 0.0000
vt -2321.4443 -0.0004 0.0000
vt 0.0000 45371.2773 0.0000
vt -0.0000 0.0000 0.0000
vt 0.0486 0.0000 0.0000
vt -0.1038 -0.0000 0.0000
vt 11812681.0000 0.1955 0.0000
vt 0.0000 -27.9569 0.0000
vt 0.0000 688.8791 0.0000
vt -0.0000 -0.0000 0.0000
# 16 texture coords

g 009
f 1/1/1 2/2/2 3/3/3 4/4/4 
f 5/5/5 1/1/1 4/4/4 6/6/6 
f 7/6/7 5/5/5 6/6/6 8/7/8 
f 9/8/9 7/6/7 8/7/8 10/9/10 
f 11/10/11 9/8/9 10/9/10 12/11/12 
f 13/12/13 11/10/11 12/11/12 14/13/14 
f 15/14/15 13/12/13 14/13/14 16/15/16 
f 2/2/2 15/14/15 16/15/16 3/3/3 
f 16/15/16 17/10/17 4/4/4 3/3/3 
f 17/10/17 8/7/8 6/6/6 4/4/4 
f 17/10/17 12/11/12 10/9/10 8/7/8 
f 17/10/17 16/15/16 14/13/14 12/11/12 
f 5/5/5 18/16/18 2/2/2 1/1/1 
f 9/8/9 18/16/18 5/5/5 7/6/7 
f 13/12/13 18/16/18 9/8/9 11/10/11 
f 2/2/2 18/16/18 13/12/13 15/14/15 
# 16 polygons

