# 3ds Max Wavefront OBJ Exporter v0.97b - (c)2007 guruware
# File Created: 10.10.2015 22:31:37

#
# object 7
#

v  3.8673 6.3069 -5.1297
v  3.8673 -6.3069 -5.1297
v  0.3463 -6.3069 -5.1297
v  0.3463 6.3069 -5.1297
v  3.6037 -6.3069 -2.4745
v  0.2027 -6.3069 -3.6833
v  3.6037 6.3069 -2.4745
v  0.2027 6.3069 -3.6833
v  2.8310 -6.3069 -0.0002
v  -0.2183 -6.3069 -2.3353
v  2.8310 6.3069 -0.0002
v  -0.2183 6.3069 -2.3353
v  1.6018 -6.3069 2.1248
v  -0.8879 -6.3069 -1.1776
v  1.6018 6.3069 2.1248
v  -0.8879 6.3069 -1.1776
v  -0.0001 -6.3069 3.7549
v  -1.7605 -6.3069 -0.2896
v  -0.0001 6.3069 3.7549
v  -1.7606 6.3069 -0.2896
v  -1.8656 -6.3069 4.7799
v  -2.7768 -6.3069 0.2687
v  -1.8656 6.3069 4.7799
v  -2.7768 6.3069 0.2687
v  -3.8674 -6.3069 5.1296
v  -3.8674 -6.3069 0.4590
v  -3.8674 6.3069 5.1296
v  -3.8674 6.3069 0.4590
# 28 vertices

vn 0.0000 0.0000 -1.0000
vn 0.0000 -1.0000 0.0000
vn 0.9799 0.0000 0.1995
vn 0.9951 0.0000 0.0988
vn 0.0000 1.0000 0.0000
vn -0.9799 0.0000 -0.1995
vn -0.9951 0.0000 -0.0988
vn 0.9157 0.0000 0.4019
vn -0.9157 0.0000 -0.4019
vn 0.7958 0.0000 0.6056
vn 0.7957 0.0000 0.6056
vn -0.7958 0.0000 -0.6056
vn 0.6038 0.0000 0.7971
vn -0.6038 0.0000 -0.7972
vn -0.6038 0.0000 -0.7971
vn 0.3313 0.0000 0.9435
vn -0.3312 0.0000 -0.9436
vn 0.1721 0.0000 0.9851
vn -0.1720 0.0000 -0.9851
vn -1.0000 0.0000 0.0000
# 20 vertex normals

vt -0.0000 -0.0000 0.0000
vt -0.0000 0.0000 0.0000
vt -143.0785 -0.0000 0.0000
vt 0.0000 -0.0004 0.0000
vt 0.0000 3575.2710 0.0000
vt 0.0000 0.0000 0.0000
vt -9.1319 -0.0000 0.0000
vt -0.0000 -701173632.0000 0.0000
vt 0.0000 -0.1092 0.0000
vt -72175208.0000 -0.0000 0.0000
vt -0.0000 218530.3750 0.0000
vt -0.0000 -305486240.0000 0.0000
vt 0.0000 -0.0001 0.0000
vt 0.0000 -0.0000 0.0000
vt -0.0004 -0.0000 0.0000
vt 0.0000 -0.0585 0.0000
vt -0.0000 -0.0162 0.0000
vt -16.7045 -0.0000 0.0000
vt -0.1407 -0.0000 0.0000
# 19 texture coords

g 7
f 1/1/1 2/2/1 3/3/1 4/4/1 
f 5/5/2 6/1/2 3/3/2 2/2/2 
f 7/6/3 5/5/3 2/2/4 1/1/4 
f 8/6/5 7/6/5 1/1/5 4/4/5 
f 6/1/6 8/6/6 4/4/7 3/3/7 
f 9/7/2 10/6/2 6/1/2 5/5/2 
f 11/2/8 9/7/8 5/5/3 7/6/3 
f 12/1/5 11/2/5 7/6/5 8/6/5 
f 10/6/9 12/1/9 8/6/6 6/1/6 
f 13/8/2 14/9/2 10/6/2 9/7/2 
f 15/1/10 13/8/11 9/7/8 11/2/8 
f 16/10/5 15/1/5 11/2/5 12/1/5 
f 14/9/12 16/10/12 12/1/9 10/6/9 
f 17/11/2 18/12/2 14/9/2 13/8/2 
f 19/13/13 17/11/13 13/8/11 15/1/10 
f 20/2/5 19/13/5 15/1/5 16/10/5 
f 18/12/14 20/2/15 16/10/12 14/9/12 
f 21/14/2 22/15/2 18/12/2 17/11/2 
f 23/16/16 21/14/16 17/11/13 19/13/13 
f 24/1/5 23/16/5 19/13/5 20/2/5 
f 22/15/17 24/1/17 20/2/15 18/12/14 
f 25/17/2 26/18/2 22/15/2 21/14/2 
f 27/2/18 25/17/18 21/14/16 23/16/16 
f 28/19/5 27/2/5 23/16/5 24/1/5 
f 26/18/19 28/19/19 24/1/17 22/15/17 
f 26/18/20 25/17/20 27/2/20 28/19/20 
# 26 polygons

