# 3ds Max Wavefront OBJ Exporter v0.97b - (c)2007 guruware
# File Created: 10.10.2015 22:45:56

#
# object 1
#

v  -0.1800 -0.1402 18.1920
v  -0.2279 -0.0077 18.1920
v  -0.2279 -0.0077 -18.1920
v  -0.1800 -0.1402 -18.1920
v  -0.0632 -0.2191 18.1920
v  -0.0632 -0.2191 -18.1920
v  0.0776 -0.2145 18.1920
v  0.0776 -0.2145 -18.1920
v  0.1888 -0.1279 18.1920
v  0.1888 -0.1279 -18.1920
v  0.2279 0.0075 18.1920
v  0.2279 0.0075 -18.1920
v  0.1799 0.1400 18.1920
v  0.1799 0.1400 -18.1920
v  0.0632 0.2190 18.1920
v  0.0632 0.2190 -18.1920
v  -0.0777 0.2143 18.1920
v  -0.0777 0.2143 -18.1920
v  -0.1888 0.1277 18.1920
v  -0.1888 0.1277 -18.1920
v  0.0000 -0.0001 -18.1920
v  0.0000 -0.0001 18.1920
# 22 vertices

vn -0.7890 -0.6144 0.0000
vn -0.9995 -0.0330 0.0000
vn -0.2770 -0.9609 0.0000
vn 0.3404 -0.9403 0.0000
vn 0.8280 -0.5607 0.0000
vn 0.9994 0.0332 0.0000
vn 0.7889 0.6145 0.0000
vn 0.2771 0.9608 0.0000
vn -0.3407 0.9402 0.0000
vn -0.8282 0.5605 0.0000
vn 0.0000 0.0000 -1.0000
vn 0.0000 0.0000 1.0000
# 12 vertex normals

vt 0.0000 0.0000 0.0000
# 1 texture coords

g 1
f 1/1/1 2/1/2 3/1/2 4/1/1 
f 5/1/3 1/1/1 4/1/1 6/1/3 
f 7/1/4 5/1/3 6/1/3 8/1/4 
f 9/1/5 7/1/4 8/1/4 10/1/5 
f 11/1/6 9/1/5 10/1/5 12/1/6 
f 13/1/7 11/1/6 12/1/6 14/1/7 
f 15/1/8 13/1/7 14/1/7 16/1/8 
f 17/1/9 15/1/8 16/1/8 18/1/9 
f 19/1/10 17/1/9 18/1/9 20/1/10 
f 2/1/2 19/1/10 20/1/10 3/1/2 
f 20/1/11 21/1/11 4/1/11 3/1/11 
f 21/1/11 8/1/11 6/1/11 4/1/11 
f 21/1/11 12/1/11 10/1/11 8/1/11 
f 21/1/11 16/1/11 14/1/11 12/1/11 
f 21/1/11 20/1/11 18/1/11 16/1/11 
f 5/1/12 22/1/12 2/1/12 1/1/12 
f 9/1/12 22/1/12 5/1/12 7/1/12 
f 13/1/12 22/1/12 9/1/12 11/1/12 
f 17/1/12 22/1/12 13/1/12 15/1/12 
f 2/1/12 22/1/12 17/1/12 19/1/12 
# 20 polygons

#
# object Object001
#

v  0.2393 -0.6920 -17.9495
v  0.0001 -0.7320 -17.9495
v  0.0001 -0.7320 -21.7452
v  0.2393 -0.6920 -21.7452
v  0.4526 -0.5765 -17.9495
v  0.4526 -0.5765 -21.7452
v  0.6169 -0.3981 -17.9495
v  0.6169 -0.3981 -21.7452
v  0.7144 -0.1759 -17.9495
v  0.7144 -0.1759 -21.7452
v  0.7344 0.0659 -17.9495
v  0.7344 0.0659 -21.7452
v  0.6750 0.3011 -17.9495
v  0.6750 0.3011 -21.7452
v  0.5422 0.5042 -17.9495
v  0.5422 0.5042 -21.7452
v  0.3509 0.6532 -17.9495
v  0.3509 0.6532 -21.7452
v  0.1213 0.7320 -17.9495
v  0.1213 0.7320 -21.7452
v  -0.1213 0.7320 -17.9495
v  -0.1213 0.7320 -21.7452
v  -0.3507 0.6532 -17.9495
v  -0.3507 0.6532 -21.7452
v  -0.5423 0.5042 -17.9495
v  -0.5423 0.5042 -21.7452
v  -0.6750 0.3011 -17.9495
v  -0.6750 0.3011 -21.7452
v  -0.7345 0.0659 -17.9495
v  -0.7345 0.0659 -21.7452
v  -0.7144 -0.1759 -17.9495
v  -0.7144 -0.1759 -21.7452
v  -0.6169 -0.3981 -17.9495
v  -0.6169 -0.3981 -21.7452
v  -0.4527 -0.5765 -17.9495
v  -0.4527 -0.5765 -21.7452
v  -0.2393 -0.6920 -17.9495
v  -0.2393 -0.6920 -21.7452
v  0.0001 0.0050 -21.7452
v  0.0001 0.0050 -17.9495
# 40 vertices

vn 0.2407 -0.7005 0.6719
vn 0.0000 -0.7407 0.6718
vn 0.0000 -0.7407 -0.6718
vn 0.2407 -0.7005 -0.6719
vn 0.4549 -0.5845 0.6719
vn 0.4549 -0.5845 -0.6719
vn 0.6200 -0.4052 0.6719
vn 0.6200 -0.4052 -0.6719
vn 0.7180 -0.1818 0.6718
vn 0.7180 -0.1818 -0.6718
vn 0.7381 0.0611 0.6719
vn 0.7381 0.0611 -0.6719
vn 0.6784 0.2975 0.6718
vn 0.6784 0.2975 -0.6718
vn 0.5449 0.5016 0.6719
vn 0.5449 0.5016 -0.6719
vn 0.3526 0.6514 0.6719
vn 0.3526 0.6514 -0.6719
vn 0.1219 0.7306 0.6719
vn 0.1219 0.7306 -0.6719
vn -0.1220 0.7306 0.6719
vn -0.1220 0.7306 -0.6719
vn -0.3525 0.6514 0.6719
vn -0.3525 0.6514 -0.6719
vn -0.5449 0.5017 0.6718
vn -0.5449 0.5017 -0.6718
vn -0.6783 0.2975 0.6718
vn -0.6783 0.2975 -0.6718
vn -0.7381 0.0611 0.6719
vn -0.7381 0.0611 -0.6719
vn -0.7180 -0.1819 0.6718
vn -0.7180 -0.1819 -0.6718
vn -0.6200 -0.4052 0.6719
vn -0.6200 -0.4052 -0.6719
vn -0.4549 -0.5845 0.6719
vn -0.4549 -0.5845 -0.6719
vn -0.2406 -0.7005 0.6719
vn -0.2406 -0.7005 -0.6719
vn 0.0000 0.0000 -1.0000
vn 0.0000 0.0000 1.0000
# 40 vertex normals

vt 0.0000 0.0000 0.0000
# 1 texture coords

g Object001
f 23/2/13 24/2/14 25/2/15 26/2/16 
f 27/2/17 23/2/13 26/2/16 28/2/18 
f 29/2/19 27/2/17 28/2/18 30/2/20 
f 31/2/21 29/2/19 30/2/20 32/2/22 
f 33/2/23 31/2/21 32/2/22 34/2/24 
f 35/2/25 33/2/23 34/2/24 36/2/26 
f 37/2/27 35/2/25 36/2/26 38/2/28 
f 39/2/29 37/2/27 38/2/28 40/2/30 
f 41/2/31 39/2/29 40/2/30 42/2/32 
f 43/2/33 41/2/31 42/2/32 44/2/34 
f 45/2/35 43/2/33 44/2/34 46/2/36 
f 47/2/37 45/2/35 46/2/36 48/2/38 
f 49/2/39 47/2/37 48/2/38 50/2/40 
f 51/2/41 49/2/39 50/2/40 52/2/42 
f 53/2/43 51/2/41 52/2/42 54/2/44 
f 55/2/45 53/2/43 54/2/44 56/2/46 
f 57/2/47 55/2/45 56/2/46 58/2/48 
f 59/2/49 57/2/47 58/2/48 60/2/50 
f 24/2/14 59/2/49 60/2/50 25/2/15 
f 60/2/50 61/2/51 26/2/16 25/2/15 
f 61/2/51 30/2/20 28/2/18 26/2/16 
f 61/2/51 34/2/24 32/2/22 30/2/20 
f 61/2/51 38/2/28 36/2/26 34/2/24 
f 61/2/51 42/2/32 40/2/30 38/2/28 
f 61/2/51 46/2/36 44/2/34 42/2/32 
f 61/2/51 50/2/40 48/2/38 46/2/36 
f 61/2/51 54/2/44 52/2/42 50/2/40 
f 61/2/51 58/2/48 56/2/46 54/2/44 
f 60/2/50 58/2/48 61/2/51 
f 27/2/17 62/2/52 24/2/14 23/2/13 
f 31/2/21 62/2/52 27/2/17 29/2/19 
f 35/2/25 62/2/52 31/2/21 33/2/23 
f 39/2/29 62/2/52 35/2/25 37/2/27 
f 43/2/33 62/2/52 39/2/29 41/2/31 
f 47/2/37 62/2/52 43/2/33 45/2/35 
f 51/2/41 62/2/52 47/2/37 49/2/39 
f 55/2/45 62/2/52 51/2/41 53/2/43 
f 59/2/49 62/2/52 55/2/45 57/2/47 
f 59/2/49 24/2/14 62/2/52 
# 37 polygons - 2 triangles

